<svg id="calendar" xmlns="http://www.w3.org/2000/svg" width="76" height="76" viewBox="0 0 76 76">
  <g id="Group_203" data-name="Group 203">
    <g id="Group_202" data-name="Group 202">
      <circle id="Ellipse_55" data-name="Ellipse 55" cx="3" cy="3" r="3" transform="translate(54 28)" fill="#81103c"/>
      <path id="Path_82" data-name="Path 82" d="M64,6H60V3a3,3,0,0,0-6,0V6H41V3a3,3,0,0,0-6,0V6H22V3a3,3,0,0,0-6,0V6H12A12.1,12.1,0,0,0,0,18V64A12.1,12.1,0,0,0,12,76H35a3,3,0,0,0,0-6H12a6.052,6.052,0,0,1-6-6V18a6.052,6.052,0,0,1,6-6h4v3a3,3,0,0,0,6,0V12H35v3a3,3,0,0,0,6,0V12H54v3a3,3,0,0,0,6,0V12h4a6.052,6.052,0,0,1,6,6V35a3,3,0,0,0,6,0V18A12.1,12.1,0,0,0,64,6Z" fill="#81103c"/>
      <path id="Path_83" data-name="Path 83" d="M287.922,269.922a18,18,0,1,0,18,18A18.048,18.048,0,0,0,287.922,269.922Zm0,30a12,12,0,1,1,12-12A12,12,0,0,1,287.922,299.922Z" transform="translate(-229.922 -229.922)" fill="#81103c"/>
      <path id="Path_84" data-name="Path 84" d="M377.93,336.016h-1v-3a3,3,0,0,0-6,0v6a3.022,3.022,0,0,0,3,3h4a3,3,0,0,0,0-6Z" transform="translate(-315.93 -281.016)" fill="#81103c"/>
      <circle id="Ellipse_56" data-name="Ellipse 56" cx="3" cy="3" r="3" transform="translate(41 28)" fill="#81103c"/>
      <ellipse id="Ellipse_57" data-name="Ellipse 57" cx="2.5" cy="3" rx="2.5" ry="3" transform="translate(29 41)" fill="#81103c"/>
      <circle id="Ellipse_58" data-name="Ellipse 58" cx="3" cy="3" r="3" transform="translate(16 28)" fill="#81103c"/>
      <circle id="Ellipse_59" data-name="Ellipse 59" cx="3" cy="3" r="3" transform="translate(16 41)" fill="#81103c"/>
      <circle id="Ellipse_60" data-name="Ellipse 60" cx="3" cy="3" r="3" transform="translate(16 54)" fill="#81103c"/>
      <ellipse id="Ellipse_61" data-name="Ellipse 61" cx="2.5" cy="3" rx="2.5" ry="3" transform="translate(29 54)" fill="#81103c"/>
      <ellipse id="Ellipse_62" data-name="Ellipse 62" cx="2.5" cy="3" rx="2.5" ry="3" transform="translate(29 28)" fill="#81103c"/>
    </g>
  </g>
</svg>
