<svg xmlns="http://www.w3.org/2000/svg" width="50.933" height="82.371" viewBox="0 0 50.933 82.371">
  <g id="location" transform="translate(-96.08 0)">
    <path id="Path_79" data-name="Path 79" d="M185.514,104.011a12.712,12.712,0,0,0,13-13c0-7.413-5.586-14-13-14s-13,6.587-13,14A12.712,12.712,0,0,0,185.514,104.011Zm0-22a9.279,9.279,0,0,1,9,9c0,4.763-4.236,8-9,8s-9-3.237-9-8A9.279,9.279,0,0,1,185.514,82.011Z" transform="translate(-63.967 -65.011)" fill="#81103c"/>
    <path id="Path_80" data-name="Path 80" d="M106.547,50c3.642,4.931,2.509,3.022,13,18a2.461,2.461,0,0,0,4,0c10.538-15.049,9.417-13.15,13-18,3.629-4.914,6.943-10.046,9-16a24.9,24.9,0,0,0-4-24h0a25,25,0,0,0-40,0,24.9,24.9,0,0,0-4,24C99.6,39.954,102.918,45.086,106.547,50Zm-2-37a22.063,22.063,0,0,1,34,0h0a19.239,19.239,0,0,1,3,19c-1.817,5.259-5.585,10.377-9,15-2.659,3.6-2.089,2.226-11,15-8.9-12.761-8.342-11.4-11-15-3.415-4.623-7.183-9.741-9-15A19.24,19.24,0,0,1,104.547,13Z" transform="translate(0 0)" fill="#81103c"/>
    <path id="Path_81" data-name="Path 81" d="M117.542,370.874c-.709-1.122-1.878-.709-3,0l-7,4a2.347,2.347,0,0,0,0,4l22,14a1.532,1.532,0,0,0,2,0l22-14a2.347,2.347,0,0,0,0-4l-7-4c-1.122-.709-2.291-1.122-3,0s-1.122,3.291,0,4l4,2-17,11-17-11,4-2C118.664,374.166,118.25,372,117.542,370.874Z" transform="translate(-8.994 -310.874)" fill="#81103c"/>
  </g>
</svg>
